<?xml version="1.0" encoding="utf-8"?>
<!-- Generator: Adobe Illustrator 22.1.0, SVG Export Plug-In . SVG Version: 6.00 Build 0)  -->
<svg version="1.1" id="Layer_1" xmlns="http://www.w3.org/2000/svg" xmlns:xlink="http://www.w3.org/1999/xlink" x="0px" y="0px"
	 viewBox="0 0 120 120" style="enable-background:new 0 0 120 120;" xml:space="preserve">
<style type="text/css">
	.st0{fill:#19D99C;}
	.st1{fill:#050505;}
	.st2{fill:#080808;}
	.st3{fill:#000302;}
	.st4{fill:#000503;}
</style>
<g>
	<path class="st0" d="M60,115c-16.9,0-33.8,0-50.7,0c-5.5,0-7.7-2.1-7.7-7.5c0-15.9,0-31.8,0-47.7c0-4.8,2.3-7.2,7.1-7.2
		c34.2,0,68.5,0,102.7,0c4.8,0,7,2.4,7.1,7.2c0,16,0,32,0,48c0,4.9-2.3,7.2-7.4,7.2C94,115,77,115,60,115z"/>
	<g>
		<path class="st1" d="M46.4,43.6c-3.2,0-5.7-0.1-8.2,0c-1.4,0.1-1.9-0.9-2.5-1.8c-2.5-3.6-4.9-7.2-7.4-10.8
			c-0.9-1.3-1.9-2.3-3.5-2.8c-4.2-1.5-5.4-0.7-5.4,3.6c0,3.4,0,6.7,0,10.1c0,1.3-0.3,1.7-1.7,1.8c-6.2,0.4-6.2,0.4-6.2-5.8
			c0-10.1,0-20.2,0-30.3c0-1.9,0.4-2.7,2.5-2.6c6.4,0.3,12.8-0.4,19.2,0.4c6.2,0.8,9.5,4,9.9,9.6c0.4,5.8-2.5,9.7-8.4,11.4
			c-0.4,0.1-0.7,0.1-1.5,0.3C39.5,30.8,41.9,37.5,46.4,43.6z M25.6,11.8c-6.3,0-6.3,0-6.2,6.3c0,0.5,0,1,0,1.5
			c-0.1,0.9,0.4,1.3,1.3,1.3c3.5-0.1,6.9,0.3,10.4-0.2c2.7-0.4,4-1.9,4-4.5c0-2.7-1.7-4.1-4.2-4.4C29.1,11.7,27.3,11.8,25.6,11.8z"
			/>
		<path class="st1" d="M89.5,19.5c4.2-4,8-5.5,12.7-4.2c3.3,1,5.5,3.1,5.9,6.6c0.8,6.8,0.2,13.6,0.3,20.5c0,0.9-0.3,1.3-1.2,1.2
			c-0.1,0-0.2,0-0.3,0c-6,0.6-6,0.6-6-5.4c0-4.2,0-8.4-0.2-12.5c-0.2-3.8-1.7-5.3-4.5-5.3c-3,0-5.1,2-5.6,5.4
			c-0.7,4.9-0.2,9.8-0.4,14.7c0,1,0.6,2.8-0.5,3c-2.1,0.4-4.4,0.2-6.6,0c-0.7-0.1-0.3-1.3-0.3-1.9c0-7.9,0-15.9-0.1-23.8
			c0-1.8,0.6-2.3,2.3-2.1c0.3,0,0.6,0,0.9,0C88.1,15.5,91.1,14.5,89.5,19.5z"/>
		<path class="st2" d="M68.3,40c-3.6,3.3-7.2,5-11.7,3.9c-4.2-1.1-6.4-3.4-6.6-8c-0.3-6.3-0.1-12.6-0.2-18.9c0-1.2,0.5-1.4,1.6-1.5
			c5.9-0.4,5.9-0.5,5.9,5.5c0,4.2,0,8.4,0.1,12.5c0.2,3.8,1.6,5.3,4.5,5.3c3,0,5.4-2.1,5.6-5.3c0.2-5.1,0.3-10.2,0.2-15.3
			c0-2.1,0.5-2.8,2.7-2.7c4.9,0.1,5,0,5,5c0,6.9-0.1,13.9,0,20.8c0,2-0.6,2.7-2.6,2.5C70.6,43.4,67.6,44.7,68.3,40z"/>
	</g>
	<g>
		<path class="st3" d="M86.2,99.4c-0.9,1.2,0.5,3-1.1,3.3c-1.8,0.4-3.7,0.2-5.5,0c-0.9-0.1-0.6-1.2-0.6-1.8c0-11.5,0-23,0-34.6
			c0-1.6,0.5-2.1,2.1-2.1c5.4-0.1,5.4-0.2,5.4,5.2c0,2.6,0,5.2,0,8.3c2.9-2.4,5.7-3.9,9.1-3.6c4.7,0.5,8.5,3.7,9.8,8.4
			c1.1,4.1,1.1,8.3-0.1,12.4C103.1,102.4,94.2,107.3,86.2,99.4z M98.7,88.9c0.1-2,0-4-1-5.9c-1-2.1-2.6-3.3-5-3.4
			c-2.4-0.1-4.3,1-5.2,3c-1.9,4.2-1.9,8.5,0.4,12.6c1.1,2,3,3,5.4,2.7c2.4-0.2,3.8-1.8,4.7-3.9C98.6,92.4,98.8,90.7,98.7,88.9z"/>
		<path class="st4" d="M21.1,77.9c3.9-3.3,7.7-4.8,12.2-3.3c2.9,1,5,2.9,5.4,6c1,6.9,0.3,13.8,0.5,20.8c0,0.8-0.3,1.2-1.2,1.4
			c-4.9,1-6.2,0.1-6.2-5c0-4.2,0.1-8.4-0.1-12.5c-0.1-3.9-1.4-5.5-4.1-5.8c-3.4-0.3-5.6,1.5-6.2,5.3c-0.9,5-0.4,10-0.3,14.9
			c0,2.3-0.4,3.5-3,3.1c-0.9-0.1-1.8-0.1-2.7,0c-1.3,0.1-1.7-0.5-1.7-1.8c0-11.6,0-23.2,0-34.9c0-1.4,0.4-1.9,1.9-2
			c5.5-0.3,5.5-0.3,5.5,5.1C21.1,72,21.1,74.6,21.1,77.9z"/>
		<path class="st3" d="M65.2,99.1c-3.8,3.6-7.8,5.4-12.7,3.7c-2.7-0.9-4.6-2.7-5.2-5.5C46.1,90.2,47,83,46.7,75.9
			c0-0.9,0.4-1.3,1.3-1.2c0.1,0,0.2,0,0.3,0c5.8-0.6,5.8-0.6,5.8,5.3c0,4.1,0,8.1,0.1,12.2c0.1,3.9,1.5,5.6,4.4,5.7
			c3.3,0.1,5.5-2,5.9-5.6c0.5-5,0.4-10,0.3-15c0-2.2,0.6-2.9,2.7-2.7c0.9,0.1,1.8,0.1,2.7,0c1.3-0.1,1.8,0.5,1.8,1.8
			c0,8.3,0,16.5,0,24.8c0,1.1-0.4,1.5-1.6,1.7C66.1,103.3,65.6,103,65.2,99.1z"/>
	</g>
</g>
</svg>
