<?xml version="1.0" encoding="utf-8"?>
<!-- Generator: Adobe Illustrator 22.1.0, SVG Export Plug-In . SVG Version: 6.00 Build 0)  -->
<svg version="1.1" id="Layer_1" xmlns="http://www.w3.org/2000/svg" xmlns:xlink="http://www.w3.org/1999/xlink" x="0px" y="0px"
	 viewBox="0 0 76 76" style="enable-background:new 0 0 76 76;" xml:space="preserve">
<style type="text/css">
	.st0{fill:#19D99C;}
	.st1{fill:#050505;}
	.st2{fill:#080808;}
	.st3{fill:#000302;}
	.st4{fill:#000503;}
</style>
<g>
	<path class="st0" d="M38,72.4c-10.6,0-21.2,0-31.8,0c-3.4,0-4.8-1.3-4.8-4.7c0-9.9,0-19.9,0-29.8c0-3,1.4-4.5,4.4-4.5
		c21.4,0,42.8,0,64.3,0c3,0,4.4,1.5,4.4,4.5c0,10,0,20,0,30c0,3.1-1.4,4.5-4.6,4.5C59.3,72.4,48.6,72.4,38,72.4z"/>
	<g>
		<path class="st1" d="M29.5,27.7c-2,0-3.6-0.1-5.1,0c-0.9,0-1.2-0.6-1.6-1.1c-1.5-2.3-3.1-4.5-4.7-6.8c-0.6-0.8-1.2-1.4-2.2-1.8
			c-2.6-0.9-3.4-0.4-3.4,2.3c0,2.1,0,4.2,0,6.3c0,0.8-0.2,1.1-1,1.1C7.6,28,7.6,28,7.6,24.1c0-6.3,0-12.6,0-18.9
			c0-1.2,0.3-1.7,1.6-1.6c4,0.2,8-0.3,12,0.2c3.9,0.5,6,2.5,6.2,6c0.3,3.6-1.6,6.1-5.3,7.1c-0.2,0.1-0.5,0.1-0.9,0.2
			C25.2,19.7,26.7,23.9,29.5,27.7z M16.5,7.8c-3.9,0-3.9,0-3.9,4c0,0.3,0,0.6,0,1c0,0.6,0.2,0.8,0.8,0.8c2.2-0.1,4.3,0.2,6.5-0.2
			c1.7-0.2,2.5-1.2,2.5-2.8c0-1.7-1.1-2.5-2.6-2.7C18.6,7.7,17.5,7.8,16.5,7.8z"/>
		<path class="st1" d="M56.5,12.6c2.6-2.5,5-3.5,7.9-2.6c2.1,0.6,3.5,1.9,3.7,4.1c0.5,4.3,0.1,8.5,0.2,12.8c0,0.6-0.2,0.8-0.8,0.8
			c-0.1,0-0.1,0-0.2,0c-3.7,0.4-3.7,0.4-3.7-3.4c0-2.6,0-5.2-0.1-7.8c-0.1-2.4-1-3.3-2.8-3.3c-1.9,0-3.2,1.3-3.5,3.4
			c-0.4,3-0.1,6.1-0.2,9.2c0,0.6,0.4,1.7-0.3,1.9c-1.3,0.2-2.8,0.1-4.2,0c-0.4,0-0.2-0.8-0.2-1.2c0-5,0-10,0-14.9
			c0-1.1,0.4-1.5,1.4-1.3c0.2,0,0.4,0,0.6,0C55.6,10.2,57.4,9.5,56.5,12.6z"/>
		<path class="st2" d="M43.2,25.5c-2.3,2-4.5,3.1-7.3,2.4c-2.6-0.7-4-2.1-4.2-5c-0.2-3.9-0.1-7.9-0.1-11.9c0-0.8,0.3-0.9,1-1
			c3.7-0.3,3.7-0.3,3.7,3.4c0,2.6,0,5.2,0.1,7.8c0.1,2.4,1,3.3,2.8,3.3c1.9,0,3.4-1.3,3.5-3.3c0.1-3.2,0.2-6.4,0.1-9.6
			c0-1.3,0.3-1.7,1.7-1.7c3.1,0.1,3.1,0,3.1,3.1c0,4.3,0,8.7,0,13c0,1.3-0.3,1.7-1.6,1.6C44.7,27.6,42.7,28.4,43.2,25.5z"/>
	</g>
	<g>
		<path class="st3" d="M54.4,62.6c-0.6,0.7,0.3,1.9-0.7,2.1c-1.1,0.2-2.3,0.1-3.4,0c-0.6-0.1-0.4-0.7-0.4-1.1c0-7.2,0-14.4,0-21.6
			c0-1,0.3-1.3,1.3-1.3c3.4-0.1,3.4-0.1,3.4,3.2c0,1.6,0,3.3,0,5.2c1.8-1.5,3.6-2.5,5.7-2.2c3,0.3,5.3,2.3,6.1,5.3
			c0.7,2.6,0.7,5.2-0.1,7.7C65,64.5,59.4,67.6,54.4,62.6z M62.2,56.1c0.1-1.2,0-2.5-0.6-3.7c-0.6-1.3-1.6-2.1-3.1-2.1
			c-1.5-0.1-2.7,0.6-3.3,1.9c-1.2,2.6-1.2,5.3,0.2,7.9c0.7,1.3,1.9,1.8,3.4,1.7c1.5-0.2,2.4-1.1,2.9-2.4
			C62.2,58.3,62.3,57.2,62.2,56.1z"/>
		<path class="st4" d="M13.7,49.2c2.4-2,4.8-3,7.6-2c1.8,0.6,3.1,1.8,3.4,3.8c0.6,4.3,0.2,8.7,0.3,13c0,0.5-0.2,0.8-0.7,0.9
			c-3.1,0.7-3.9,0-3.9-3.1c0-2.6,0-5.2,0-7.8c-0.1-2.4-0.8-3.5-2.5-3.6c-2.1-0.2-3.5,0.9-3.9,3.3c-0.5,3.1-0.2,6.2-0.2,9.4
			c0,1.4-0.3,2.2-1.9,1.9c-0.6-0.1-1.1-0.1-1.7,0c-0.8,0.1-1.1-0.3-1.1-1.1c0-7.3,0-14.5,0-21.8c0-0.9,0.3-1.2,1.2-1.2
			c3.4-0.2,3.4-0.2,3.4,3.2C13.7,45.5,13.7,47.1,13.7,49.2z"/>
		<path class="st3" d="M41.2,62.5c-2.4,2.3-4.9,3.4-7.9,2.3c-1.7-0.6-2.9-1.7-3.2-3.5c-0.8-4.4-0.2-8.9-0.4-13.4
			c0-0.6,0.3-0.8,0.8-0.8c0.1,0,0.1,0,0.2,0c3.6-0.4,3.6-0.4,3.6,3.3c0,2.5,0,5.1,0,7.6c0.1,2.5,0.9,3.5,2.8,3.6
			c2.1,0.1,3.4-1.3,3.7-3.5c0.3-3.1,0.2-6.2,0.2-9.4c0-1.4,0.4-1.8,1.7-1.7c0.6,0.1,1.1,0,1.7,0c0.8-0.1,1.1,0.3,1.1,1.1
			c0,5.2,0,10.3,0,15.5c0,0.7-0.2,1-1,1C41.8,65.1,41.5,64.9,41.2,62.5z"/>
	</g>
</g>
</svg>
