<?xml version="1.0" encoding="utf-8"?>
<!-- Generator: Adobe Illustrator 22.1.0, SVG Export Plug-In . SVG Version: 6.00 Build 0)  -->
<svg version="1.1" id="Layer_1" xmlns="http://www.w3.org/2000/svg" xmlns:xlink="http://www.w3.org/1999/xlink" x="0px" y="0px"
	 viewBox="0 0 60 60" style="enable-background:new 0 0 60 60;" xml:space="preserve">
<style type="text/css">
	.st0{fill:#19D99C;}
	.st1{fill:#050505;}
	.st2{fill:#080808;}
	.st3{fill:#000302;}
	.st4{fill:#000503;}
</style>
<g>
	<path class="st0" d="M30,57.5c-8.5,0-16.9,0-25.4,0c-2.7,0-3.8-1.1-3.8-3.8c0-8,0-15.9,0-23.9c0-2.4,1.2-3.6,3.5-3.6
		c17.1,0,34.3,0,51.4,0c2.4,0,3.5,1.2,3.5,3.6c0,8,0,16,0,24c0,2.5-1.2,3.6-3.7,3.6C47,57.5,38.5,57.5,30,57.5z"/>
	<g>
		<path class="st1" d="M23.2,21.8c-1.6,0-2.8,0-4.1,0c-0.7,0-0.9-0.5-1.3-0.9c-1.2-1.8-2.5-3.6-3.7-5.4c-0.4-0.6-1-1.2-1.7-1.4
			c-2.1-0.7-2.7-0.3-2.7,1.8c0,1.7,0,3.4,0,5c0,0.6-0.1,0.9-0.8,0.9C5.7,22,5.7,22,5.7,18.9c0-5,0-10.1,0-15.1c0-1,0.2-1.3,1.3-1.3
			c3.2,0.2,6.4-0.2,9.6,0.2c3.1,0.4,4.8,2,5,4.8c0.2,2.9-1.2,4.9-4.2,5.7c-0.2,0.1-0.4,0.1-0.7,0.1C19.7,15.4,20.9,18.8,23.2,21.8z
			 M12.8,5.9c-3.1,0-3.1,0-3.1,3.2c0,0.3,0,0.5,0,0.8c0,0.5,0.2,0.6,0.6,0.6c1.7-0.1,3.5,0.1,5.2-0.1c1.3-0.2,2-1,2-2.2
			c0-1.4-0.9-2-2.1-2.2C14.5,5.8,13.6,5.9,12.8,5.9z"/>
		<path class="st1" d="M44.8,9.7c2.1-2,4-2.8,6.4-2.1c1.7,0.5,2.8,1.5,3,3.3c0.4,3.4,0.1,6.8,0.2,10.2c0,0.5-0.2,0.7-0.6,0.6
			c-0.1,0-0.1,0-0.2,0c-3,0.3-3,0.3-3-2.7c0-2.1,0-4.2-0.1-6.3c-0.1-1.9-0.8-2.7-2.3-2.7c-1.5,0-2.6,1-2.8,2.7
			c-0.3,2.4-0.1,4.9-0.2,7.3c0,0.5,0.3,1.4-0.3,1.5c-1.1,0.2-2.2,0.1-3.3,0c-0.3,0-0.2-0.6-0.2-1c0-4,0-8,0-11.9
			c0-0.9,0.3-1.2,1.1-1.1c0.1,0,0.3,0,0.5,0C44.1,7.8,45.5,7.2,44.8,9.7z"/>
		<path class="st2" d="M34.2,20c-1.8,1.6-3.6,2.5-5.9,1.9c-2.1-0.5-3.2-1.7-3.3-4c-0.1-3.2-0.1-6.3-0.1-9.5c0-0.6,0.2-0.7,0.8-0.8
			c3-0.2,2.9-0.2,3,2.7c0,2.1,0,4.2,0.1,6.3c0.1,1.9,0.8,2.7,2.3,2.6c1.5,0,2.7-1.1,2.8-2.7c0.1-2.5,0.1-5.1,0.1-7.6
			c0-1.1,0.3-1.4,1.3-1.4c2.5,0.1,2.5,0,2.5,2.5c0,3.5,0,6.9,0,10.4c0,1-0.3,1.4-1.3,1.2C35.3,21.7,33.8,22.4,34.2,20z"/>
	</g>
	<g>
		<path class="st3" d="M43.1,49.7c-0.4,0.6,0.3,1.5-0.5,1.7c-0.9,0.2-1.8,0.1-2.7,0c-0.4,0-0.3-0.6-0.3-0.9c0-5.8,0-11.5,0-17.3
			c0-0.8,0.2-1,1-1c2.7-0.1,2.7-0.1,2.7,2.6c0,1.3,0,2.6,0,4.1c1.4-1.2,2.9-2,4.6-1.8c2.4,0.2,4.3,1.9,4.9,4.2
			c0.6,2.1,0.6,4.1-0.1,6.2C51.5,51.2,47.1,53.7,43.1,49.7z M49.4,44.4c0.1-1,0-2-0.5-2.9c-0.5-1-1.3-1.7-2.5-1.7
			c-1.2,0-2.1,0.5-2.6,1.5c-0.9,2.1-0.9,4.3,0.2,6.3c0.6,1,1.5,1.5,2.7,1.4c1.2-0.1,1.9-0.9,2.3-1.9C49.3,46.2,49.4,45.4,49.4,44.4z
			"/>
		<path class="st4" d="M10.6,39c2-1.6,3.9-2.4,6.1-1.6c1.5,0.5,2.5,1.5,2.7,3c0.5,3.4,0.2,6.9,0.2,10.4c0,0.4-0.1,0.6-0.6,0.7
			c-2.5,0.5-3.1,0-3.1-2.5c0-2.1,0-4.2,0-6.3c0-1.9-0.7-2.8-2-2.9c-1.7-0.1-2.8,0.7-3.1,2.6c-0.4,2.5-0.2,5-0.2,7.5
			c0,1.1-0.2,1.7-1.5,1.5c-0.4-0.1-0.9,0-1.4,0c-0.7,0.1-0.9-0.2-0.9-0.9c0-5.8,0-11.6,0-17.4c0-0.7,0.2-0.9,1-1
			c2.7-0.1,2.7-0.2,2.7,2.5C10.6,36,10.6,37.3,10.6,39z"/>
		<path class="st3" d="M32.6,49.6c-1.9,1.8-3.9,2.7-6.3,1.9c-1.3-0.5-2.3-1.4-2.6-2.8c-0.6-3.5-0.2-7.1-0.3-10.7
			c0-0.5,0.2-0.6,0.7-0.6c0.1,0,0.1,0,0.2,0c2.9-0.3,2.9-0.3,2.9,2.7c0,2,0,4.1,0,6.1c0,2,0.7,2.8,2.2,2.9c1.7,0,2.7-1,3-2.8
			c0.3-2.5,0.2-5,0.1-7.5c0-1.1,0.3-1.5,1.4-1.3c0.5,0.1,0.9,0,1.4,0c0.7-0.1,0.9,0.2,0.9,0.9c0,4.1,0,8.3,0,12.4
			c0,0.6-0.2,0.8-0.8,0.8C33.1,51.7,32.8,51.5,32.6,49.6z"/>
	</g>
</g>
</svg>
