<?xml version="1.0" encoding="utf-8"?>
<!-- Generator: Adobe Illustrator 22.1.0, SVG Export Plug-In . SVG Version: 6.00 Build 0)  -->
<svg version="1.1" id="Layer_1" xmlns="http://www.w3.org/2000/svg" xmlns:xlink="http://www.w3.org/1999/xlink" x="0px" y="0px"
	 viewBox="0 0 32 32" style="enable-background:new 0 0 32 32;" xml:space="preserve">
<style type="text/css">
	.st0{fill:#19D99C;}
	.st1{fill:#050505;}
	.st2{fill:#080808;}
	.st3{fill:#000302;}
	.st4{fill:#000503;}
</style>
<g>
	<path class="st0" d="M16,30.5c-4.5,0-8.9,0-13.4,0c-1.4,0-2-0.6-2-2c0-4.2,0-8.4,0-12.6c0-1.3,0.6-1.9,1.9-1.9c9,0,18,0,27.1,0
		c1.3,0,1.9,0.6,1.9,1.9c0,4.2,0,8.4,0,12.7c0,1.3-0.6,1.9-1.9,1.9C25,30.5,20.5,30.5,16,30.5z"/>
	<g>
		<path class="st1" d="M12.4,11.7c-0.8,0-1.5,0-2.2,0c-0.4,0-0.5-0.2-0.7-0.5c-0.7-1-1.3-1.9-2-2.8C7.4,8,7.1,7.7,6.7,7.6
			c-1.1-0.4-1.4-0.2-1.4,1c0,0.9,0,1.8,0,2.7c0,0.3-0.1,0.5-0.4,0.5c-1.6,0.1-1.6,0.1-1.6-1.5c0-2.7,0-5.3,0-8
			c0-0.5,0.1-0.7,0.7-0.7c1.7,0.1,3.4-0.1,5.1,0.1c1.6,0.2,2.5,1.1,2.6,2.5c0.1,1.5-0.7,2.6-2.2,3c-0.1,0-0.2,0-0.4,0.1
			C10.6,8.3,11.2,10.1,12.4,11.7z M6.9,3.3c-1.6,0-1.6,0-1.6,1.7c0,0.1,0,0.3,0,0.4c0,0.2,0.1,0.3,0.3,0.3c0.9,0,1.8,0.1,2.7-0.1
			C9,5.5,9.4,5.1,9.4,4.5c0-0.7-0.5-1.1-1.1-1.1C7.8,3.3,7.4,3.3,6.9,3.3z"/>
		<path class="st1" d="M23.8,5.3c1.1-1,2.1-1.5,3.3-1.1C28,4.5,28.6,5,28.7,6c0.2,1.8,0,3.6,0.1,5.4c0,0.2-0.1,0.3-0.3,0.3
			c0,0-0.1,0-0.1,0c-1.6,0.2-1.6,0.2-1.6-1.4c0-1.1,0-2.2,0-3.3c0-1-0.4-1.4-1.2-1.4c-0.8,0-1.3,0.5-1.5,1.4
			c-0.2,1.3-0.1,2.6-0.1,3.9c0,0.3,0.2,0.7-0.1,0.8c-0.6,0.1-1.2,0.1-1.7,0c-0.2,0-0.1-0.3-0.1-0.5c0-2.1,0-4.2,0-6.3
			c0-0.5,0.2-0.6,0.6-0.6c0.1,0,0.2,0,0.2,0C23.4,4.3,24.2,4,23.8,5.3z"/>
		<path class="st2" d="M18.2,10.7c-1,0.9-1.9,1.3-3.1,1c-1.1-0.3-1.7-0.9-1.8-2.1c-0.1-1.7,0-3.3-0.1-5c0-0.3,0.1-0.4,0.4-0.4
			c1.6-0.1,1.6-0.1,1.6,1.4c0,1.1,0,2.2,0,3.3c0,1,0.4,1.4,1.2,1.4c0.8,0,1.4-0.6,1.5-1.4c0.1-1.3,0.1-2.7,0-4
			c0-0.6,0.1-0.7,0.7-0.7c1.3,0,1.3,0,1.3,1.3c0,1.8,0,3.7,0,5.5c0,0.5-0.1,0.7-0.7,0.7C18.8,11.6,18,12,18.2,10.7z"/>
	</g>
	<g>
		<path class="st3" d="M22.9,26.4c-0.2,0.3,0.1,0.8-0.3,0.9c-0.5,0.1-1,0.1-1.4,0C21,27.2,21,27,21,26.8c0-3,0-6.1,0-9.1
			c0-0.4,0.1-0.5,0.5-0.6c1.4,0,1.4-0.1,1.4,1.4c0,0.7,0,1.4,0,2.2c0.8-0.6,1.5-1,2.4-0.9c1.3,0.1,2.2,1,2.6,2.2
			c0.3,1.1,0.3,2.2,0,3.3C27.4,27.2,25,28.5,22.9,26.4z M26.2,23.6c0-0.5,0-1-0.3-1.5c-0.3-0.5-0.7-0.9-1.3-0.9
			c-0.6,0-1.1,0.3-1.4,0.8c-0.5,1.1-0.5,2.2,0.1,3.3c0.3,0.5,0.8,0.8,1.4,0.7c0.6-0.1,1-0.5,1.2-1C26.2,24.6,26.2,24.1,26.2,23.6z"
			/>
		<path class="st4" d="M5.8,20.7c1-0.9,2-1.3,3.2-0.9c0.8,0.3,1.3,0.8,1.4,1.6c0.3,1.8,0.1,3.6,0.1,5.5c0,0.2-0.1,0.3-0.3,0.4
			c-1.3,0.3-1.6,0-1.6-1.3c0-1.1,0-2.2,0-3.3c0-1-0.4-1.5-1.1-1.5c-0.9-0.1-1.5,0.4-1.6,1.4c-0.2,1.3-0.1,2.6-0.1,3.9
			c0,0.6-0.1,0.9-0.8,0.8c-0.2,0-0.5,0-0.7,0c-0.4,0-0.5-0.1-0.5-0.5c0-3.1,0-6.1,0-9.2c0-0.4,0.1-0.5,0.5-0.5
			c1.4-0.1,1.4-0.1,1.4,1.3C5.8,19.2,5.8,19.9,5.8,20.7z"/>
		<path class="st3" d="M17.4,26.3c-1,1-2,1.4-3.3,1c-0.7-0.2-1.2-0.7-1.4-1.5c-0.3-1.9-0.1-3.8-0.2-5.6c0-0.2,0.1-0.3,0.3-0.3
			c0,0,0.1,0,0.1,0c1.5-0.1,1.5-0.1,1.5,1.4c0,1.1,0,2.1,0,3.2c0,1,0.4,1.5,1.2,1.5c0.9,0,1.4-0.5,1.6-1.5c0.1-1.3,0.1-2.6,0.1-3.9
			c0-0.6,0.2-0.8,0.7-0.7c0.2,0,0.5,0,0.7,0c0.4,0,0.5,0.1,0.5,0.5c0,2.2,0,4.4,0,6.5c0,0.3-0.1,0.4-0.4,0.4
			C17.6,27.4,17.5,27.3,17.4,26.3z"/>
	</g>
</g>
</svg>
