<?xml version="1.0" encoding="utf-8"?>
<!-- Generator: Adobe Illustrator 22.1.0, SVG Export Plug-In . SVG Version: 6.00 Build 0)  -->
<svg version="1.1" id="Layer_1" xmlns="http://www.w3.org/2000/svg" xmlns:xlink="http://www.w3.org/1999/xlink" x="0px" y="0px"
	 viewBox="0 0 152 152" style="enable-background:new 0 0 152 152;" xml:space="preserve">
<style type="text/css">
	.st0{fill:#19D99C;}
	.st1{fill:#050505;}
	.st2{fill:#080808;}
	.st3{fill:#000302;}
	.st4{fill:#000503;}
</style>
<g>
	<path class="st0" d="M76,146c-21.5,0-43,0-64.6,0c-7,0-9.8-2.7-9.8-9.6c0-20.2,0-40.5,0-60.7c0-6.1,2.9-9.1,9-9.1
		c43.6,0,87.1,0,130.7,0c6.1,0,9,3,9,9.2c0,20.4,0,40.7,0,61.1c0,6.3-2.9,9.1-9.4,9.1C119.3,146,97.6,146,76,146z"/>
	<g>
		<path class="st1" d="M58.7,55.1c-4,0-7.2-0.1-10.4,0c-1.8,0.1-2.4-1.2-3.2-2.3c-3.1-4.6-6.3-9.2-9.5-13.8
			c-1.1-1.6-2.5-2.9-4.4-3.6c-5.3-1.8-6.9-0.8-6.9,4.6c0,4.3-0.1,8.6,0,12.8c0,1.6-0.3,2.2-2.1,2.3c-8,0.5-7.9,0.6-7.9-7.4
			c0-12.8,0.1-25.7-0.1-38.5c0-2.5,0.5-3.4,3.2-3.3c8.1,0.4,16.3-0.5,24.5,0.5c7.9,1,12.1,5.1,12.6,12.2c0.5,7.4-3.2,12.4-10.7,14.5
			c-0.5,0.1-0.9,0.2-1.9,0.4C49.9,38.8,53,47.4,58.7,55.1z M32.2,14.7c-8,0-8,0-7.9,8.1c0,0.6,0,1.3,0,1.9c-0.1,1.2,0.5,1.6,1.6,1.6
			c4.4-0.2,8.8,0.3,13.2-0.3c3.4-0.5,5.1-2.4,5.1-5.7c0-3.5-2.2-5.2-5.4-5.5C36.6,14.5,34.4,14.7,32.2,14.7z"/>
		<path class="st1" d="M113.6,24.4c5.3-5.1,10.2-7.1,16.2-5.4c4.3,1.2,7,3.9,7.5,8.4c1,8.7,0.2,17.4,0.4,26c0,1.2-0.4,1.7-1.6,1.6
			c-0.1,0-0.3,0-0.4,0c-7.6,0.7-7.6,0.7-7.6-6.9c0-5.3,0.1-10.6-0.2-15.9c-0.2-4.8-2.1-6.8-5.7-6.8c-3.8,0-6.5,2.6-7.1,6.8
			c-0.8,6.2-0.3,12.4-0.5,18.7c0,1.3,0.8,3.5-0.6,3.8c-2.7,0.5-5.6,0.2-8.4-0.1c-0.8-0.1-0.4-1.6-0.4-2.5c0-10.1,0.1-20.2-0.1-30.4
			c0-2.3,0.8-3,2.9-2.7c0.4,0.1,0.8,0,1.2,0C111.8,19.4,115.6,18.1,113.6,24.4z"/>
		<path class="st2" d="M86.6,50.6c-4.6,4.2-9.2,6.4-14.9,4.9c-5.4-1.4-8.2-4.4-8.4-10.2c-0.4-8-0.1-16.1-0.2-24.1
			c0-1.6,0.6-1.8,2-1.9c7.5-0.5,7.5-0.6,7.5,7c0,5.3-0.1,10.6,0.2,15.9c0.2,4.8,2,6.7,5.8,6.7c3.8,0,6.9-2.7,7.1-6.8
			c0.3-6.5,0.4-13,0.2-19.4c-0.1-2.7,0.6-3.5,3.4-3.5c6.3,0.2,6.3,0,6.3,6.3c0,8.8-0.1,17.6,0.1,26.4c0,2.6-0.7,3.4-3.3,3.2
			C89.5,54.9,85.7,56.6,86.6,50.6z"/>
	</g>
	<g>
		<path class="st3" d="M109.4,126.1c-1.1,1.5,0.7,3.8-1.3,4.2c-2.2,0.5-4.7,0.2-7,0c-1.1-0.1-0.8-1.5-0.8-2.3c0-14.7,0-29.3-0.1-44
			c0-2,0.6-2.6,2.6-2.7c6.8-0.2,6.8-0.3,6.8,6.6c0,3.3,0,6.6,0,10.6c3.7-3.1,7.3-5,11.6-4.6c6,0.6,10.8,4.7,12.5,10.7
			c1.4,5.2,1.4,10.6-0.1,15.7C130.8,129.9,119.5,136.2,109.4,126.1z M125.2,112.7c0.1-2.5-0.1-5.1-1.2-7.4c-1.3-2.6-3.3-4.2-6.4-4.4
			c-3.1-0.1-5.5,1.2-6.6,3.9c-2.4,5.3-2.4,10.8,0.5,16c1.4,2.6,3.9,3.8,6.9,3.5c3.1-0.3,4.9-2.3,5.9-4.9
			C125.1,117.3,125.4,115.1,125.2,112.7z"/>
		<path class="st4" d="M26.5,98.8c5-4.1,9.8-6.1,15.5-4.1c3.7,1.3,6.3,3.7,6.9,7.7c1.3,8.8,0.4,17.6,0.6,26.4c0,1.1-0.4,1.5-1.5,1.8
			c-6.3,1.3-7.9,0.1-7.9-6.3c0-5.3,0.1-10.6-0.1-16c-0.1-4.9-1.7-7-5.2-7.3c-4.3-0.3-7.1,1.9-7.9,6.7c-1.1,6.3-0.5,12.7-0.4,19
			c0,2.9-0.5,4.4-3.8,3.9c-1.1-0.2-2.3-0.1-3.5,0c-1.7,0.1-2.2-0.6-2.2-2.3c0-14.8,0.1-29.6,0-44.4c0-1.8,0.6-2.4,2.4-2.5
			c7-0.4,7-0.4,7,6.4C26.5,91.2,26.5,94.6,26.5,98.8z"/>
		<path class="st3" d="M82.6,125.8c-4.8,4.6-9.9,6.9-16.1,4.7c-3.4-1.2-5.9-3.4-6.6-7c-1.6-9-0.5-18.1-0.8-27.2
			c0-1.2,0.6-1.6,1.7-1.6c0.1,0,0.3,0,0.4,0c7.4-0.7,7.4-0.7,7.4,6.8c0,5.2,0,10.4,0.1,15.6c0.1,5,1.9,7.2,5.6,7.3
			c4.2,0.1,7-2.5,7.5-7.2c0.7-6.3,0.5-12.7,0.3-19c-0.1-2.8,0.8-3.7,3.5-3.4c1.1,0.2,2.3,0.1,3.5,0c1.7-0.1,2.2,0.6,2.2,2.2
			c0,10.5,0,21,0,31.5c0,1.4-0.5,2-2,2.1C83.8,131.1,83.2,130.8,82.6,125.8z"/>
	</g>
</g>
</svg>
