<?xml version="1.0" encoding="utf-8"?>
<!-- Generator: Adobe Illustrator 22.1.0, SVG Export Plug-In . SVG Version: 6.00 Build 0)  -->
<svg version="1.1" id="Layer_1" xmlns="http://www.w3.org/2000/svg" xmlns:xlink="http://www.w3.org/1999/xlink" x="0px" y="0px"
	 viewBox="0 0 48 48" style="enable-background:new 0 0 48 48;" xml:space="preserve">
<style type="text/css">
	.st0{fill:#19D99C;}
	.st1{fill:#050505;}
	.st2{fill:#080808;}
	.st3{fill:#000302;}
	.st4{fill:#000503;}
</style>
<g>
	<path class="st0" d="M24,45.9c-6.7,0-13.4,0-20.2,0c-2.2,0-3-0.8-3-3c0-6.3,0-12.6,0-18.9c0-1.9,0.9-2.9,2.8-2.9
		c13.6,0,27.2,0,40.8,0c1.9,0,2.8,0.9,2.8,2.9c0,6.4,0,12.7,0,19.1c0,2-0.9,2.9-2.9,2.9C37.5,45.9,30.8,45.9,24,45.9z"/>
	<g>
		<path class="st1" d="M18.6,17.5c-1.3,0-2.3,0-3.3,0c-0.6,0-0.7-0.4-1-0.7c-1-1.4-2-2.9-3-4.3C11,12,10.6,11.6,10,11.3
			c-1.7-0.6-2.1-0.3-2.1,1.4c0,1.3,0,2.7,0,4c0,0.5-0.1,0.7-0.7,0.7c-2.5,0.2-2.5,0.2-2.5-2.3c0-4,0-8,0-12c0-0.8,0.2-1.1,1-1
			c2.5,0.1,5.1-0.2,7.6,0.2c2.5,0.3,3.8,1.6,3.9,3.8c0.2,2.3-1,3.9-3.3,4.5c-0.1,0-0.3,0.1-0.6,0.1C15.8,12.4,16.8,15.1,18.6,17.5z
			 M10.3,4.9c-2.5,0-2.5,0-2.5,2.5c0,0.2,0,0.4,0,0.6c0,0.4,0.1,0.5,0.5,0.5c1.4-0.1,2.7,0.1,4.1-0.1c1.1-0.2,1.6-0.8,1.6-1.8
			c0-1.1-0.7-1.6-1.7-1.7C11.7,4.8,11,4.9,10.3,4.9z"/>
		<path class="st1" d="M35.7,7.9c1.7-1.6,3.2-2.2,5-1.7c1.3,0.4,2.2,1.2,2.4,2.6c0.3,2.7,0.1,5.4,0.1,8.1c0,0.4-0.1,0.5-0.5,0.5
			c0,0-0.1,0-0.1,0c-2.4,0.2-2.4,0.2-2.4-2.1c0-1.7,0-3.3-0.1-5c-0.1-1.5-0.7-2.1-1.8-2.1c-1.2,0-2,0.8-2.2,2.1
			c-0.3,1.9-0.1,3.9-0.2,5.8c0,0.4,0.3,1.1-0.2,1.2c-0.9,0.2-1.8,0.1-2.6,0c-0.3,0-0.1-0.5-0.1-0.8c0-3.2,0-6.3,0-9.5
			c0-0.7,0.2-0.9,0.9-0.8c0.1,0,0.2,0,0.4,0C35.2,6.3,36.3,5.9,35.7,7.9z"/>
		<path class="st2" d="M27.3,16.1c-1.4,1.3-2.9,2-4.6,1.5c-1.7-0.4-2.6-1.4-2.6-3.2c-0.1-2.5,0-5-0.1-7.5c0-0.5,0.2-0.6,0.6-0.6
			c2.3-0.2,2.3-0.2,2.3,2.2c0,1.7,0,3.3,0.1,5c0.1,1.5,0.6,2.1,1.8,2.1c1.2,0,2.2-0.9,2.2-2.1c0.1-2,0.1-4,0.1-6.1
			c0-0.8,0.2-1.1,1.1-1.1c2,0,2,0,2,2c0,2.8,0,5.5,0,8.3c0,0.8-0.2,1.1-1,1C28.2,17.4,27,17.9,27.3,16.1z"/>
	</g>
	<g>
		<path class="st3" d="M34.4,39.6c-0.4,0.5,0.2,1.2-0.4,1.3c-0.7,0.1-1.5,0.1-2.2,0c-0.4,0-0.2-0.5-0.2-0.7c0-4.6,0-9.2,0-13.7
			c0-0.6,0.2-0.8,0.8-0.8c2.1,0,2.1-0.1,2.1,2c0,1,0,2.1,0,3.3c1.1-1,2.3-1.6,3.6-1.4c1.9,0.2,3.4,1.5,3.9,3.3
			c0.5,1.6,0.4,3.3,0,4.9C41.1,40.8,37.6,42.8,34.4,39.6z M39.4,35.5c0-0.8,0-1.6-0.4-2.3c-0.4-0.8-1-1.3-2-1.4
			c-1,0-1.7,0.4-2.1,1.2c-0.7,1.7-0.7,3.4,0.2,5c0.4,0.8,1.2,1.2,2.1,1.1c1-0.1,1.5-0.7,1.8-1.5C39.3,36.9,39.4,36.2,39.4,35.5z"/>
		<path class="st4" d="M8.6,31.1c1.6-1.3,3.1-1.9,4.9-1.3c1.2,0.4,2,1.2,2.2,2.4c0.4,2.7,0.1,5.5,0.2,8.2c0,0.3-0.1,0.5-0.5,0.6
			c-2,0.4-2.5,0-2.5-2c0-1.7,0-3.3,0-5c0-1.5-0.5-2.2-1.6-2.3c-1.4-0.1-2.2,0.6-2.5,2.1c-0.3,2-0.1,4-0.1,5.9c0,0.9-0.2,1.4-1.2,1.2
			c-0.4-0.1-0.7,0-1.1,0c-0.5,0-0.7-0.2-0.7-0.7c0-4.6,0-9.2,0-13.8c0-0.6,0.2-0.7,0.8-0.8c2.2-0.1,2.2-0.1,2.2,2
			C8.6,28.8,8.6,29.8,8.6,31.1z"/>
		<path class="st3" d="M26.1,39.5C24.6,41,23,41.7,21,41c-1.1-0.4-1.8-1.1-2-2.2c-0.5-2.8-0.1-5.7-0.2-8.5c0-0.4,0.2-0.5,0.5-0.5
			c0,0,0.1,0,0.1,0c2.3-0.2,2.3-0.2,2.3,2.1c0,1.6,0,3.2,0,4.9c0,1.6,0.6,2.2,1.8,2.3c1.3,0,2.2-0.8,2.3-2.2c0.2-2,0.1-4,0.1-5.9
			c0-0.9,0.3-1.2,1.1-1.1c0.4,0,0.7,0,1.1,0c0.5,0,0.7,0.2,0.7,0.7c0,3.3,0,6.6,0,9.8c0,0.5-0.1,0.6-0.6,0.7
			C26.4,41.2,26.2,41.1,26.1,39.5z"/>
	</g>
</g>
</svg>
