<?xml version="1.0" encoding="utf-8"?>
<!-- Generator: Adobe Illustrator 22.1.0, SVG Export Plug-In . SVG Version: 6.00 Build 0)  -->
<svg version="1.1" id="Layer_1" xmlns="http://www.w3.org/2000/svg" xmlns:xlink="http://www.w3.org/1999/xlink" x="0px" y="0px"
	 viewBox="0 0 135 45" style="enable-background:new 0 0 135 45;" xml:space="preserve">
<style type="text/css">
	.st0{fill:#1AD99D;}
	.st1{fill:#FAFAFA;}
	.st2{fill:#F7F7F7;}
	.st3{fill:#010403;}
	.st4{fill:#010604;}
	.st5{fill:#020202;}
	.st6{fill:none;}
</style>
<g>
	<g>
		<path class="st0" d="M98.7,40.8c-9.9,0-19.7,0-29.6,0c-3.5,0-4.7-1.2-4.7-4.6c0-9.2,0-18.4,0-27.6c0-3.1,1.3-4.4,4.5-4.4
			c19.8,0,39.7,0,59.5,0c3.2,0,4.5,1.3,4.5,4.4c0,9.3,0,18.5,0,27.8c0,3.1-1.3,4.4-4.5,4.4C118.5,40.8,108.6,40.8,98.7,40.8z"/>
		<path class="st1" d="M22.6,33.3c-1.8,0-3.3,0-4.8,0c-0.8,0-1.1-0.5-1.5-1.1c-1.4-2.1-2.9-4.2-4.4-6.3c-0.4-0.6-0.9-1.1-1.5-1.5
			c-1-0.5-2.3-0.8-3.3-0.4c-0.9,0.4-0.3,1.6-0.4,2.4c-0.1,1.8-0.1,3.7,0,5.6c0,0.8-0.1,1.2-1.1,1.3c-3.5,0.1-3.5,0.1-3.5-3.4
			c0-5.9,0-11.7,0-17.6c0-1.3,0.2-1.8,1.6-1.7c3.6,0.2,7.2-0.2,10.7,0.2c4.1,0.5,6,2.4,6.2,5.8c0.2,3.5-1.6,5.7-5.8,6.7
			C18.5,25.9,20,29.8,22.6,33.3z M10.4,14.7c-3.7,0-3.7,0-3.6,3.7c0,0.3,0,0.6,0,0.9c0,0.5,0.2,0.8,0.7,0.7c2-0.1,4.1,0.1,6.1-0.1
			c1.6-0.2,2.4-1.1,2.4-2.6c0-1.6-1-2.4-2.5-2.5C12.4,14.6,11.4,14.7,10.4,14.7z"/>
		<path class="st1" d="M48.1,19c2.3-2.2,4.6-3.1,7.4-2.2c1.8,0.6,3,1.7,3.3,3.7c0.5,4,0.1,8.1,0.2,12.2c0,0.6-0.2,0.8-0.7,0.7
			c-0.1,0-0.1,0-0.2,0c-3.5,0.3-3.5,0.3-3.5-3.2c0-2.5,0-5-0.1-7.5c0-1.6-0.7-2.8-2.5-2.9c-1.7-0.1-3.1,1.1-3.4,2.8
			c-0.5,3-0.3,6.1-0.2,9.1c0,1.5-0.4,1.9-1.8,1.7c-0.5-0.1-1-0.1-1.4,0c-0.9,0.1-1.3-0.1-1.2-1.1c0.1-4.8,0-9.6,0-14.3
			c0-0.7,0.1-1.1,1-1c0.6,0.1,1.2,0.1,1.8,0C48.3,16.6,48.1,17.7,48.1,19z"/>
		<path class="st2" d="M35.5,31.2c-1.3,1.1-2.5,2-3.9,2.3c-3.7,0.9-6.7-1.1-6.9-4.9c-0.2-3.6-0.1-7.3-0.1-10.9
			c0-0.7,0.2-0.9,0.9-0.9c3.5-0.3,3.5-0.3,3.5,3.2c0,2.5,0,5,0.1,7.5c0.1,2.1,1,2.9,2.6,2.9c1.7,0,3.2-1.2,3.3-2.9
			c0.2-2.9,0.2-5.8,0.1-8.8c0-1.5,0.3-2.2,1.9-1.9c0.5,0.1,1.1,0,1.6,0c0.7,0,1,0.2,1,0.9c0,4.9,0,9.8,0,14.7c0,0.7-0.2,1-0.9,0.9
			c-0.4,0-0.7,0-1.1,0C36.2,33.5,35,33.4,35.5,31.2z"/>
	</g>
	<g>
		<path class="st3" d="M114.2,19c2.4-2.1,4.8-2.8,7.5-1.5c2.8,1.3,3.8,3.8,4,6.7c0.1,1.9,0,3.8-0.7,5.6c-1.9,4.5-6.7,5.5-10.4,2.3
			c-0.2-0.1-0.3-0.3-0.5-0.4c-0.6,0.6,0.2,1.7-0.6,1.9c-1,0.2-2.1,0.1-3.2,0c-0.6,0-0.4-0.6-0.4-1c0-6.8,0-13.6,0-20.4
			c0-0.9,0.3-1.1,1.1-1.1c3.2-0.1,3.2-0.2,3.2,3.1C114.2,15.7,114.2,17.1,114.2,19z M121.4,25.4c0.1-1.1,0-2.2-0.5-3.2
			c-0.6-1.3-1.5-2.1-3-2.2c-1.5-0.1-2.6,0.6-3.2,1.9c-1,2.4-1,4.9,0.3,7.2c0.7,1.3,1.9,1.8,3.3,1.6c1.4-0.2,2.2-1.1,2.6-2.4
			C121.4,27.4,121.4,26.4,121.4,25.4z"/>
		<path class="st4" d="M75.9,19.1c2.3-1.9,4.5-2.8,7.2-1.9c1.7,0.6,2.9,1.7,3.2,3.5c0.6,4,0.2,8.1,0.3,12.2c0,0.5-0.2,0.7-0.7,0.8
			c-2.9,0.6-3.6,0-3.6-2.9c0-2.5,0-5,0-7.5c-0.1-2.1-0.8-3.1-2.4-3.2c-1.9-0.2-3.2,0.8-3.6,2.9c-0.6,3-0.2,6-0.2,8.9
			c0,1.3-0.2,1.9-1.7,1.8c-2.6-0.1-2.6,0-2.6-2.7c0-6.1,0-12.2,0-18.3c0-1.3,0.3-1.9,1.7-1.7c0.5,0.1,1.1,0.1,1.6,0
			c0.9-0.1,1.1,0.3,1.1,1.2C75.9,14.4,75.9,16.5,75.9,19.1z"/>
		<path class="st5" d="M101.8,31.4c-2.2,2.1-4.6,3.2-7.4,2.2c-1.7-0.6-2.8-1.7-3.1-3.4c-0.7-4.1-0.2-8.2-0.3-12.3
			c0-0.7,0.4-0.7,0.9-0.8c3.4-0.3,3.4-0.3,3.4,3.1c0,2.4,0,4.9,0,7.3c0.1,2.2,0.9,3.1,2.6,3.2c1.9,0.1,3.2-1.1,3.5-3.1
			c0.4-3,0.2-6,0.2-8.9c0-1.2,0.3-1.8,1.6-1.6c0.5,0.1,1.1,0,1.6,0c0.7-0.1,1.1,0.2,1.1,1c0,4.8,0,9.7,0,14.5c0,0.8-0.3,1-1.1,1
			C102.1,33.8,102,33.8,101.8,31.4z"/>
	</g>
</g>
<rect x="-137" y="-12" class="st6" width="276" height="172.5"/>
</svg>
